<?xml version="1.0" encoding="UTF-8"?>
<!-- Generator: Adobe Illustrator 26.0.0, SVG Export Plug-In . SVG Version: 6.00 Build 0)  -->
<svg xmlns="http://www.w3.org/2000/svg" xmlns:xlink="http://www.w3.org/1999/xlink" version="1.1" id="Layer_1" x="0px" y="0px" viewBox="0 0 400 200" style="enable-background:new 0 0 400 200;" xml:space="preserve">
<style type="text/css">
	.st0{fill:#A81B65;}
	.st1{fill:#6B103C;}
	.st2{fill:#FFFFFF;}
	.st3{opacity:0.22;}
</style>
<g>
	<path class="st0" d="M73.4,102.4c4.9,4.5,10.5,8.3,16.1,11.9c7.4,4.8,12.2,11.1,14.6,17.9c7.1-9.3,11.3-21,11.3-33.6   c0-30.7-24.9-55.6-55.6-55.6c-1.4,0-2.8,0.1-4.2,0.2c0.2,0.7,0.4,1.6,0.7,2.9C59.3,60.8,47.4,78.7,73.4,102.4z"></path>
	<path class="st1" d="M68.7,129.1c-10.1-5.2-20-0.5-30.5-0.4c-6.5,0-8.5-2.8-7.2-8.6c0.6-2.7,2.6-4.7-0.2-6.4c-4-2.3-0.7-4.6,0.7-7   c-0.8-0.5-1.5-0.9-2.2-1.4c-2.4-1.6-3.4-3.1-0.8-5.7c3.2-3.1,2.7-2-1.4-3.9c-5-2.3-5.4-4.6-0.8-7.9c4.1-3,5.5-5.5,7.9-10   c0.6-1.2,1.2-2.7,1.6-4.4c-3.6-1.9-5.3-5.9-5.3-6.2c1.1,1.6,2.8,2.9,4.5,3.9c-1.6-2-2.2-4.1-2.3-4.4c0.9,1.6,2.3,3,3.8,4.1   c1-4.3,1.8-9.1,3.2-12.2c1.4-3.2,3.4-6.1,5.3-9c1.7-2.5,3.2-4,5.4-5.8C24.2,48.4,4.2,71.2,4.2,98.7c0,30.7,24.9,55.6,55.6,55.6   c9.9,0,19.2-2.6,27.2-7.1c-1.7-2.6-3.7-5-5.8-7.3C77.5,135.8,73.6,131.7,68.7,129.1z"></path>
	<path class="st2" d="M50.5,43.8c0,0-0.1,0.1-0.1,0.1c1.7-0.3,3.5-0.5,5.3-0.6C54.7,39.9,54.1,42.2,50.5,43.8z"></path>
	<path class="st2" d="M104.1,132.3c-2.4-6.9-7.1-13.1-14.6-17.9c-5.6-3.6-11.2-7.4-16.1-11.9c-26-23.7-14.1-41.6-17.1-56.3   c-0.3-1.2-0.5-2.2-0.7-2.9c-1.8,0.1-3.5,0.3-5.3,0.6c-2.2,1.8-3.7,3.3-5.4,5.8c-2,2.9-3.9,5.8-5.3,9c-1.4,3.2-2.2,7.9-3.2,12.2   c0,0,0,0,0.1,0c0-0.2,0.1-0.4,0.1-0.6c0.9,1.5,2.1,2.8,3.4,3.9c-0.1,0.1-0.2,0.2-0.4,0.3c-1.2-0.4-2.5-0.6-3.8-0.7   c0-0.1,0.1-0.2,0.1-0.4c-0.1,0-0.1-0.1-0.2-0.1c-0.5,1.6-1,3.1-1.6,4.4c-2.4,4.6-3.8,7-7.9,10c-4.6,3.3-4.2,5.6,0.8,7.9   c4.1,1.9,4.6,0.8,1.4,3.9c-2.7,2.6-1.6,4.1,0.8,5.7c0.7,0.5,1.5,0.9,2.2,1.4c-1.4,2.4-4.7,4.8-0.7,7c2.8,1.6,0.9,3.7,0.2,6.4   c-1.3,5.8,0.7,8.6,7.2,8.6c10.5-0.1,20.5-4.7,30.5,0.4c4.9,2.5,8.8,6.6,12.5,10.8c2.1,2.3,4.1,4.7,5.8,7.3   C93.7,143.4,99.5,138.3,104.1,132.3z"></path>
	<path class="st2" d="M32.7,66.8c0.1,0.3,0.7,2.4,2.3,4.4c-1.7-1-3.4-2.2-4.5-3.9c0.1,0.3,1.7,4.3,5.3,6.2c0.2-0.8,0.5-1.7,0.7-2.6   C35,69.8,33.6,68.4,32.7,66.8z"></path>
	<path class="st2" d="M36,73.6c0,0.1-0.1,0.2-0.1,0.4c1.3,0.1,2.6,0.3,3.8,0.7c0.1-0.1,0.2-0.2,0.4-0.3c-1.3-1.1-2.5-2.4-3.4-3.9   c0,0.2-0.1,0.4-0.1,0.6c0,0,0,0-0.1,0c-0.2,0.9-0.4,1.8-0.7,2.6C35.8,73.5,35.9,73.6,36,73.6z"></path>
</g>
<g class="st3">
	<path class="st2" d="M111.4,77.8c-8.3-20.4-28.2-34.7-51.6-34.7C29.1,43.1,4.2,68,4.2,98.7c0,5.8,0.9,11.5,2.6,16.8   C28.7,115.1,81.3,110.7,111.4,77.8z"></path>
</g>
<g>
	<path d="M164,78.3c0,2.5-0.4,4.9-1.3,7c-0.8,2.1-2,3.9-3.6,5.5c-1.5,1.5-3.4,2.7-5.5,3.6c-2.1,0.8-4.5,1.3-7.1,1.3h-13.2V61.1h13.2   c2.6,0,5,0.4,7.1,1.3c2.1,0.9,4,2,5.5,3.6c1.5,1.5,2.7,3.3,3.6,5.5C163.6,73.5,164,75.8,164,78.3z M157.5,78.3   c0-1.9-0.3-3.6-0.8-5.1c-0.5-1.5-1.2-2.8-2.2-3.8c-0.9-1-2.1-1.8-3.4-2.4c-1.3-0.6-2.9-0.8-4.5-0.8h-6.7v24.3h6.7   c1.7,0,3.2-0.3,4.5-0.8s2.5-1.4,3.4-2.4c0.9-1,1.7-2.3,2.2-3.8C157.2,81.9,157.5,80.2,157.5,78.3z"></path>
	<path d="M190.8,61.1v5.1h-15.3v9.6h12.1v4.9h-12.1v9.8h15.3v5.1h-21.8V61.1H190.8z"></path>
	<path d="M203,82.1v13.5h-6.4V61.1h10.5c2.4,0,4.4,0.2,6,0.7c1.7,0.5,3.1,1.2,4.1,2c1.1,0.9,1.9,1.9,2.4,3.1c0.5,1.2,0.8,2.6,0.8,4   c0,1.2-0.2,2.3-0.5,3.3c-0.3,1-0.8,2-1.5,2.8c-0.6,0.8-1.4,1.6-2.4,2.2c-0.9,0.6-2,1.1-3.2,1.5c0.8,0.5,1.5,1.1,2.1,2l8.6,12.7   h-5.8c-0.6,0-1-0.1-1.4-0.3c-0.4-0.2-0.7-0.5-1-1l-7.3-11c-0.3-0.4-0.6-0.7-0.9-0.9c-0.3-0.2-0.8-0.3-1.4-0.3H203z M203,77.5h4   c1.2,0,2.3-0.2,3.2-0.5c0.9-0.3,1.6-0.7,2.2-1.3c0.6-0.5,1-1.2,1.3-1.9c0.3-0.7,0.4-1.5,0.4-2.4c0-1.7-0.6-3.1-1.7-4   c-1.2-0.9-2.9-1.4-5.3-1.4H203V77.5z"></path>
	<path d="M245.7,82.8c0.2,0.5,0.5,1.1,0.7,1.7c0.2-0.6,0.5-1.1,0.7-1.7c0.2-0.6,0.5-1.1,0.8-1.6l10.2-19.1c0.1-0.2,0.3-0.4,0.4-0.6   c0.1-0.1,0.3-0.2,0.5-0.3c0.2-0.1,0.4-0.1,0.6-0.1c0.2,0,0.5,0,0.7,0h4.8v34.5h-5.7V73.3c0-0.4,0-0.9,0-1.4c0-0.5,0.1-1,0.1-1.5   L249.1,90c-0.2,0.4-0.5,0.8-0.9,1c-0.4,0.2-0.8,0.4-1.3,0.4H246c-0.5,0-1-0.1-1.3-0.4c-0.4-0.2-0.7-0.6-0.9-1l-10.6-19.6   c0.1,0.5,0.1,1,0.1,1.5c0,0.5,0,1,0,1.4v22.3h-5.7V61.1h4.8c0.3,0,0.5,0,0.7,0c0.2,0,0.4,0.1,0.6,0.1c0.2,0.1,0.3,0.2,0.5,0.3   c0.1,0.1,0.3,0.3,0.4,0.6L245,81.3C245.2,81.8,245.5,82.3,245.7,82.8z"></path>
	<path d="M302.4,95.6h-5c-0.6,0-1-0.1-1.4-0.4c-0.4-0.3-0.6-0.6-0.8-1l-2.6-7h-14.3l-2.6,7c-0.1,0.4-0.4,0.7-0.8,1   c-0.4,0.3-0.8,0.5-1.4,0.5h-5l13.6-34.5h6.6L302.4,95.6z M280,82.5h11l-4.2-11.5c-0.2-0.5-0.4-1.1-0.6-1.8   c-0.2-0.7-0.5-1.4-0.7-2.3c-0.2,0.8-0.4,1.6-0.7,2.3c-0.2,0.7-0.4,1.3-0.6,1.8L280,82.5z"></path>
	<path d="M158.1,133.3c0.3,0,0.5,0.1,0.7,0.3l1.8,2c-1.4,1.6-3.1,2.9-5.1,3.8c-2,0.9-4.4,1.4-7.2,1.4c-2.5,0-4.7-0.4-6.7-1.3   c-2-0.9-3.7-2-5.1-3.6c-1.4-1.5-2.5-3.4-3.3-5.5c-0.8-2.1-1.2-4.5-1.2-7.1c0-2.6,0.4-4.9,1.3-7.1c0.8-2.1,2-4,3.5-5.5   c1.5-1.5,3.3-2.7,5.4-3.6c2.1-0.9,4.4-1.3,7-1.3c2.5,0,4.7,0.4,6.5,1.2s3.4,1.8,4.9,3.2l-1.5,2.1c-0.1,0.2-0.2,0.3-0.4,0.4   c-0.1,0.1-0.4,0.2-0.6,0.2c-0.2,0-0.4-0.1-0.7-0.2c-0.2-0.2-0.5-0.3-0.8-0.6c-0.3-0.2-0.7-0.5-1.1-0.7c-0.4-0.3-0.9-0.5-1.5-0.7   c-0.6-0.2-1.3-0.4-2.1-0.6c-0.8-0.2-1.7-0.2-2.7-0.2c-1.8,0-3.5,0.3-5,0.9c-1.5,0.6-2.8,1.5-3.9,2.7c-1.1,1.2-2,2.6-2.6,4.2   c-0.6,1.7-0.9,3.5-0.9,5.6c0,2.1,0.3,4,0.9,5.7c0.6,1.7,1.4,3.1,2.5,4.2s2.3,2,3.8,2.6c1.4,0.6,3,0.9,4.7,0.9c1,0,1.9-0.1,2.7-0.2   c0.8-0.1,1.6-0.3,2.3-0.6c0.7-0.3,1.3-0.6,1.9-1c0.6-0.4,1.2-0.9,1.8-1.4C157.6,133.5,157.9,133.3,158.1,133.3z"></path>
	<path d="M198.5,123.3c0,2.6-0.4,4.9-1.2,7.1s-2,4-3.4,5.5c-1.5,1.5-3.3,2.7-5.3,3.6c-2.1,0.9-4.4,1.3-6.9,1.3   c-2.5,0-4.8-0.4-6.9-1.3c-2.1-0.9-3.8-2-5.3-3.6c-1.5-1.5-2.6-3.4-3.4-5.5s-1.2-4.5-1.2-7.1c0-2.6,0.4-4.9,1.2-7.1s2-4,3.4-5.5   c1.5-1.6,3.3-2.8,5.3-3.6c2.1-0.9,4.4-1.3,6.9-1.3c2.5,0,4.8,0.4,6.9,1.3c2.1,0.9,3.9,2.1,5.3,3.6c1.5,1.6,2.6,3.4,3.4,5.5   S198.5,120.8,198.5,123.3z M193.8,123.3c0-2.1-0.3-4-0.9-5.7c-0.6-1.7-1.4-3.1-2.4-4.2c-1.1-1.2-2.3-2-3.8-2.7s-3.2-0.9-5-0.9   c-1.8,0-3.5,0.3-5,0.9s-2.8,1.5-3.8,2.7c-1.1,1.2-1.9,2.6-2.4,4.2c-0.6,1.7-0.9,3.6-0.9,5.7c0,2.1,0.3,4,0.9,5.6   c0.6,1.7,1.4,3.1,2.4,4.2s2.3,2,3.8,2.6c1.5,0.6,3.2,0.9,5,0.9c1.8,0,3.5-0.3,5-0.9c1.5-0.6,2.8-1.5,3.8-2.6s1.9-2.6,2.4-4.2   C193.5,127.3,193.8,125.4,193.8,123.3z"></path>
	<path d="M222.3,111.6c-0.1,0.2-0.3,0.4-0.5,0.5c-0.2,0.1-0.4,0.2-0.6,0.2c-0.3,0-0.6-0.1-0.9-0.4c-0.4-0.3-0.8-0.6-1.4-0.9   c-0.5-0.3-1.2-0.6-2-0.9c-0.8-0.3-1.7-0.4-2.8-0.4c-1,0-1.9,0.1-2.7,0.4c-0.8,0.3-1.5,0.7-2,1.1c-0.5,0.5-0.9,1-1.2,1.7   c-0.3,0.6-0.4,1.3-0.4,2.1c0,1,0.2,1.7,0.7,2.4c0.5,0.6,1.1,1.2,1.9,1.6c0.8,0.4,1.6,0.8,2.6,1.2c1,0.3,2,0.7,3,1   c1,0.4,2,0.7,3,1.2c1,0.4,1.9,1,2.6,1.7c0.8,0.7,1.4,1.5,1.9,2.5c0.5,1,0.7,2.2,0.7,3.6c0,1.5-0.3,2.9-0.8,4.2s-1.3,2.5-2.2,3.4   c-1,1-2.2,1.7-3.6,2.3c-1.4,0.6-3,0.8-4.9,0.8c-2.2,0-4.2-0.4-6-1.2c-1.8-0.8-3.4-1.9-4.7-3.3l1.3-2.2c0.1-0.2,0.3-0.3,0.5-0.4   c0.2-0.1,0.4-0.2,0.6-0.2c0.3,0,0.7,0.2,1.1,0.5c0.4,0.4,1,0.8,1.6,1.2c0.6,0.4,1.4,0.8,2.3,1.2c0.9,0.4,2,0.5,3.4,0.5   c1.1,0,2.1-0.2,2.9-0.5c0.9-0.3,1.6-0.7,2.2-1.3s1.1-1.2,1.4-2c0.3-0.8,0.5-1.6,0.5-2.6c0-1-0.2-1.9-0.7-2.5   c-0.5-0.7-1.1-1.2-1.8-1.7c-0.8-0.4-1.6-0.8-2.6-1.1c-1-0.3-2-0.6-3-1c-1-0.3-2-0.7-3-1.1c-1-0.4-1.8-1-2.6-1.7   c-0.8-0.7-1.4-1.5-1.8-2.6c-0.5-1-0.7-2.3-0.7-3.8c0-1.2,0.2-2.4,0.7-3.5c0.5-1.1,1.1-2.1,2-3c0.9-0.9,2-1.6,3.3-2.1   c1.3-0.5,2.8-0.8,4.5-0.8c1.9,0,3.7,0.3,5.2,0.9c1.6,0.6,3,1.5,4.1,2.6L222.3,111.6z"></path>
	<path d="M247.5,129.2c0.2,0.4,0.3,0.8,0.5,1.3c0.2-0.4,0.3-0.9,0.5-1.3c0.2-0.4,0.4-0.8,0.6-1.2l11.6-21c0.2-0.4,0.4-0.6,0.6-0.7   c0.2-0.1,0.5-0.1,1-0.1h3.4v34.2h-4.1v-25.1c0-0.3,0-0.7,0-1.1c0-0.4,0-0.8,0.1-1.2L250,134.4c-0.4,0.7-1,1.1-1.7,1.1h-0.7   c-0.7,0-1.3-0.4-1.7-1.1L234,113c0,0.4,0.1,0.8,0.1,1.2s0,0.8,0,1.1v25.1h-4.1v-34.2h3.4c0.4,0,0.7,0,1,0.1   c0.2,0.1,0.4,0.3,0.6,0.7l11.8,21C247.2,128.4,247.4,128.8,247.5,129.2z"></path>
	<path d="M295.1,106.2v3.8h-16.4v11.4H292v3.6h-13.3v11.7h16.4v3.8H274v-34.2H295.1z"></path>
	<path d="M325.1,106.2v3.9h-11v30.3h-4.6v-30.3h-11.1v-3.9H325.1z"></path>
	<path d="M335.4,140.4h-4.6v-34.2h4.6V140.4z"></path>
	<path d="M368.7,133.3c0.3,0,0.5,0.1,0.7,0.3l1.8,2c-1.4,1.6-3.1,2.9-5.1,3.8c-2,0.9-4.4,1.4-7.2,1.4c-2.5,0-4.7-0.4-6.7-1.3   s-3.7-2-5.1-3.6s-2.5-3.4-3.3-5.5c-0.8-2.1-1.2-4.5-1.2-7.1c0-2.6,0.4-4.9,1.3-7.1c0.8-2.1,2-4,3.5-5.5c1.5-1.5,3.3-2.7,5.4-3.6   c2.1-0.9,4.4-1.3,7-1.3c2.5,0,4.7,0.4,6.5,1.2c1.8,0.8,3.4,1.8,4.9,3.2l-1.5,2.1c-0.1,0.2-0.2,0.3-0.4,0.4   c-0.1,0.1-0.3,0.2-0.6,0.2c-0.2,0-0.4-0.1-0.7-0.2c-0.2-0.2-0.5-0.3-0.8-0.6c-0.3-0.2-0.7-0.5-1.1-0.7c-0.4-0.3-0.9-0.5-1.5-0.7   c-0.6-0.2-1.3-0.4-2.1-0.6c-0.8-0.2-1.7-0.2-2.7-0.2c-1.8,0-3.5,0.3-5,0.9c-1.5,0.6-2.8,1.5-3.9,2.7c-1.1,1.2-2,2.6-2.6,4.2   c-0.6,1.7-0.9,3.5-0.9,5.6c0,2.1,0.3,4,0.9,5.7c0.6,1.7,1.4,3.1,2.5,4.2c1.1,1.2,2.3,2,3.8,2.6c1.4,0.6,3,0.9,4.7,0.9   c1,0,1.9-0.1,2.7-0.2c0.8-0.1,1.6-0.3,2.3-0.6c0.7-0.3,1.3-0.6,1.9-1c0.6-0.4,1.2-0.9,1.8-1.4C368.2,133.5,368.4,133.3,368.7,133.3   z"></path>
	<path d="M394.8,111.6c-0.1,0.2-0.3,0.4-0.5,0.5c-0.2,0.1-0.4,0.2-0.6,0.2c-0.3,0-0.6-0.1-0.9-0.4c-0.4-0.3-0.8-0.6-1.4-0.9   c-0.5-0.3-1.2-0.6-2-0.9c-0.8-0.3-1.7-0.4-2.8-0.4c-1,0-1.9,0.1-2.7,0.4c-0.8,0.3-1.5,0.7-2,1.1c-0.5,0.5-0.9,1-1.2,1.7   c-0.3,0.6-0.4,1.3-0.4,2.1c0,1,0.2,1.7,0.7,2.4c0.5,0.6,1.1,1.2,1.9,1.6c0.8,0.4,1.6,0.8,2.6,1.2c1,0.3,2,0.7,3,1   c1,0.4,2,0.7,3,1.2c1,0.4,1.9,1,2.6,1.7c0.8,0.7,1.4,1.5,1.9,2.5c0.5,1,0.7,2.2,0.7,3.6c0,1.5-0.3,2.9-0.8,4.2   c-0.5,1.3-1.3,2.5-2.2,3.4s-2.2,1.7-3.6,2.3c-1.4,0.6-3,0.8-4.9,0.8c-2.2,0-4.2-0.4-6.1-1.2c-1.8-0.8-3.4-1.9-4.7-3.3l1.3-2.2   c0.1-0.2,0.3-0.3,0.5-0.4c0.2-0.1,0.4-0.2,0.6-0.2c0.3,0,0.7,0.2,1.1,0.5c0.4,0.4,1,0.8,1.6,1.2c0.6,0.4,1.4,0.8,2.3,1.2   c0.9,0.4,2,0.5,3.4,0.5c1.1,0,2.1-0.2,2.9-0.5c0.9-0.3,1.6-0.7,2.2-1.3c0.6-0.5,1.1-1.2,1.4-2c0.3-0.8,0.5-1.6,0.5-2.6   c0-1-0.2-1.9-0.7-2.5c-0.5-0.7-1.1-1.2-1.8-1.7c-0.8-0.4-1.6-0.8-2.6-1.1c-1-0.3-2-0.6-3-1c-1-0.3-2-0.7-3-1.1   c-1-0.4-1.8-1-2.6-1.7c-0.8-0.7-1.4-1.5-1.8-2.6c-0.5-1-0.7-2.3-0.7-3.8c0-1.2,0.2-2.4,0.7-3.5c0.5-1.1,1.1-2.1,2-3   c0.9-0.9,2-1.6,3.3-2.1c1.3-0.5,2.8-0.8,4.5-0.8c1.9,0,3.7,0.3,5.2,0.9c1.6,0.6,3,1.5,4.1,2.6L394.8,111.6z"></path>
</g>
</svg>
